<?xml version="1.0" standalone="no"?>
<!DOCTYPE svg PUBLIC "-//W3C//DTD SVG 20010904//EN"
 "http://www.w3.org/TR/2001/REC-SVG-20010904/DTD/svg10.dtd">
<svg version="1.0" xmlns="http://www.w3.org/2000/svg"
 width="153.000000pt" height="153.000000pt" viewBox="0 0 153.000000 153.000000"
 preserveAspectRatio="xMidYMid meet">
<metadata>
Created by potrace 1.11, written by Peter Selinger 2001-2013
</metadata>
<g transform="translate(0.000000,153.000000) scale(0.100000,-0.100000)"
fill="#000000" stroke="none">
<path d="M569 1498 c-141 -102 -234 -254 -255 -416 -5 -39 -12 -56 -28 -64
-11 -6 -33 -23 -48 -39 -14 -15 -28 -25 -31 -23 -2 3 -10 -3 -18 -13 -12 -15
-12 -16 1 -9 8 4 5 -1 -7 -10 -13 -9 -23 -23 -23 -31 0 -7 -7 -16 -15 -19 -8
-4 -12 -10 -9 -15 3 -5 0 -9 -6 -9 -6 0 -8 -4 -5 -10 3 -5 2 -10 -4 -10 -17 0
-44 -113 -46 -195 -2 -94 7 -131 56 -226 l19 -36 -75 -76 -75 -76 0 -110 c0
-99 2 -111 18 -111 20 0 43 14 45 26 1 14 24 34 31 27 3 -4 6 -1 6 6 0 16 25
41 40 41 6 0 9 3 7 8 -6 9 19 33 27 25 3 -4 6 1 6 10 0 9 5 19 12 23 7 5 9 2
4 -7 -4 -8 0 -5 8 5 9 11 16 24 16 29 0 4 3 6 8 4 8 -4 43 29 36 35 -2 2 8 4
21 4 14 0 25 -3 25 -7 0 -8 62 -35 73 -31 4 1 7 -2 7 -7 0 -6 8 -10 18 -10 9
0 33 -3 52 -7 58 -12 177 -7 198 9 6 5 12 7 12 3 0 -4 13 0 30 9 16 8 32 14
35 13 2 -2 13 5 25 14 11 10 20 15 20 11 0 -4 7 2 16 13 8 10 12 12 9 4 -4 -8
25 18 64 58 39 41 71 80 71 87 0 8 9 11 24 8 34 -7 171 33 240 70 66 35 179
134 170 148 -3 5 0 8 6 7 17 -4 88 117 109 187 18 58 35 153 33 185 -1 16 -8
72 -16 127 -7 47 -66 184 -82 190 -8 3 -12 8 -9 13 5 9 -81 111 -88 104 -3 -3
-8 3 -11 13 -4 10 -30 33 -59 51 l-52 32 -295 0 -296 0 -45 -32z"/>
</g>
</svg>
